{
  "accessors": [
    {
      "bufferView": 0,
      "componentType": 5125,
      "count": 66987,
      "type": "SCALAR"
    },
    {
      "bufferView": 1,
      "componentType": 5126,
      "count": 13164,
      "max": [
        34.7284736633301,
        108.739807128906,
        41.1702156066895
      ],
      "min": [
        -34.7284736633301,
        0.00445175170898438,
        -53.9289970397949
      ],
      "type": "VEC3"
    },
    {
      "bufferView": 2,
      "componentType": 5126,
      "count": 13164,
      "type": "VEC3"
    },
    {
      "bufferView": 3,
      "componentType": 5126,
      "count": 13164,
      "type": "VEC2"
    }
  ],
  "asset": {
    "generator": "Substance Painter 6.2.1",
    "version": "2.0"
  },
  "bufferViews": [
    {
      "buffer": 0,
      "byteLength": 267948,
      "target": 34963
    },
    {
      "buffer": 0,
      "byteLength": 157968,
      "byteOffset": 267948,
      "target": 34962
    },
    {
      "buffer": 0,
      "byteLength": 157968,
      "byteOffset": 425916,
      "target": 34962
    },
    {
      "buffer": 0,
      "byteLength": 105312,
      "byteOffset": 583884,
      "target": 34962
    }
  ],
  "buffers": [
    {
      "byteLength": 689196,
      "uri": "shishizi2.bin"
    }
  ],
  "images": [
    {
      "uri": "ssz_baseColor.png"
    },
    {
      "uri": "ssz_occlusionRoughnessMetallic.png"
    },
    {
      "uri": "ssz_normal.png"
    }
  ],
  "materials": [
    {
      "alphaMode": "OPAQUE",
      "name": "ssz",
      "normalTexture": {
        "index": 2
      },
      "occlusionTexture": {
        "index": 1
      },
      "pbrMetallicRoughness": {
        "baseColorTexture": {
          "index": 0
        },
        "metallicRoughnessTexture": {
          "index": 1
        }
      }
    }
  ],
  "meshes": [
    {
      "name": "ssz",
      "primitives": [
        {
          "attributes": {
            "NORMAL": 2,
            "POSITION": 1,
            "TEXCOORD_0": 3
          },
          "indices": 0,
          "material": 0,
          "mode": 4
        }
      ]
    }
  ],
  "nodes": [
    {
      "children": [
        1
      ],
      "name": "root"
    },
    {
      "children": [
        2
      ],
      "name": "ssz"
    },
    {
      "mesh": 0,
      "name": "ssz"
    }
  ],
  "samplers": [
    {
      "magFilter": 9729,
      "minFilter": 9985,
      "wrapS": 10497,
      "wrapT": 10497
    }
  ],
  "scene": 0,
  "scenes": [
    {
      "name": "Scene",
      "nodes": [
        0
      ]
    }
  ],
  "textures": [
    {
      "sampler": 0,
      "source": 0
    },
    {
      "sampler": 0,
      "source": 1
    },
    {
      "sampler": 0,
      "source": 2
    }
  ]
}